<?xml version="1.0" encoding="utf-8"?>
<!-- Generator: Adobe Illustrator 24.0.3, SVG Export Plug-In . SVG Version: 6.00 Build 0)  -->
<svg version="1.1" id="Camada_1" xmlns="http://www.w3.org/2000/svg" xmlns:xlink="http://www.w3.org/1999/xlink" x="0px" y="0px"
	 viewBox="0 0 595.28 204.41" style="enable-background:new 0 0 595.28 204.41;" xml:space="preserve">
<style type="text/css">
	.st0{fill:#2B303D;}
	.st1{fill-rule:evenodd;clip-rule:evenodd;fill:#32437A;}
	.st2{fill-rule:evenodd;clip-rule:evenodd;fill:#90ADD2;}
	.st3{fill:none;}
	.st4{enable-background:new    ;}
	.st5{fill:#32437A;}
</style>
<g>
	<path class="st0" d="M170.16,108.98v22.73h25.94v13.48h-25.94v40.44h-16.82V94.99h44.43v13.99
		C197.77,108.98,170.16,108.98,170.16,108.98z"/>
	<path class="st0" d="M201.03,185.63V94.99h16.69v76.91h24.52v13.73L201.03,185.63L201.03,185.63z"/>
	<path class="st0" d="M290.18,181.52c-5.4,5-12.71,6.03-19.64,6.03c-6.68,0-13.48-0.9-18.87-5.27c-2.7-2.18-3.98-4.36-4.5-5.65
		c-1.54-3.21-1.92-7.06-1.92-10.4V115.4c0-1.93-0.38-11.05,5.65-16.43c3.34-2.95,9.63-5.91,19.77-5.91
		c13.09,0,20.03,5.39,22.73,10.65c1.41,2.95,2.05,5.78,2.05,12.07v50.46C295.44,172.02,294.54,177.29,290.18,181.52z M278.63,116.94
		c0-0.52,0.39-4.63-1.03-7.32c-0.77-1.67-2.7-3.98-6.93-3.98c-0.9,0-3.34,0.13-5.39,1.67c-3.72,2.57-3.21,6.55-3.21,10.27v45.84
		c0,2.7-0.12,6.03,1.54,8.34c1.93,2.69,6.04,2.69,6.81,2.69s3.21-0.12,5.26-1.54c3.08-2.18,2.95-5.78,2.95-9.12L278.63,116.94
		L278.63,116.94z"/>
	<path class="st0" d="M337.82,185.63c-0.26-0.51-0.52-0.89-0.77-1.41c-0.64-1.42-1.67-3.72-1.67-7.32v-20.67
		c0-1.41,0-2.83-0.13-4.36c-0.52-5.01-4.23-6.17-8.6-6.17h-7.96v39.93H302V94.99h33.38c3.98,0,7.71,0.38,11.04,2.95
		c5.39,3.98,5.26,10.27,5.26,16.18v9.76c0,0.64,0.13,6.29-1.8,9.76c-0.26,0.39-0.89,1.54-1.93,2.44c-1.79,1.54-3.59,2.18-7.96,3.21
		c0.39,0,3.21,0.77,5,1.79c7.19,3.85,7.32,11.55,7.32,13.99v18.49c0,0.25-0.25,7.19,2.32,10.65c0.38,0.64,0.89,0.9,1.54,1.41
		L337.82,185.63L337.82,185.63z M335.11,115.4c0-3.47-0.51-4.62-1.93-6.04c-1.8-1.54-3.59-1.41-5.78-1.41h-8.73v24.78h8.73
		c2.18,0,4.75-0.26,6.29-2.18c1.29-1.54,1.42-2.83,1.42-6.42L335.11,115.4L335.11,115.4z"/>
	<path class="st0" d="M359.91,185.63V94.99h43.91v13.73H376.6v21.31h25.67v13.74H376.6v27.86h28.5v14H359.91z"/>
	<path class="st0" d="M439.52,185.63l-16.05-67.92l1.42,67.92h-15.66V94.99h21.44l16.3,66.5l-1.66-66.5h15.28v90.64L439.52,185.63
		L439.52,185.63z"/>
	<path class="st0" d="M515.4,175.23c-4.36,12.58-21.18,12.32-23.1,12.32c-3.85,0-7.45-0.64-8.6-0.9
		c-6.68-1.28-12.58-4.24-15.28-10.78c-1.28-3.34-1.28-6.16-1.28-9.5v-49.3c0-1.54,0.13-3.21,0.26-4.75
		c0.25-5.78,1.8-10.27,6.42-13.99c3.72-2.95,8.73-5.26,18.74-5.26c5.78,0,11.94,0.77,16.95,4.11c2.44,1.67,4.49,3.98,5.65,6.68
		c1.41,2.95,1.54,4.75,1.54,10.27V128h-16.43v-11.42c0-6.93-1.16-10.66-8.6-10.66c-6.42,0-7.7,3.98-7.7,9.88v48.54
		c0,5.9,1.28,10.27,8.22,10.27c7.45,0,8.09-4.23,8.09-11.17V151.6h16.43v12.84C516.68,168.04,516.55,171.89,515.4,175.23z"/>
	<path class="st0" d="M521.78,185.63V94.99h43.91v13.73h-27.22v21.31h25.69v13.74h-25.69v27.86h28.5v14H521.78z"/>
	<path class="st1" d="M83.13,12.28c-4.99,5.95-8,13.61-8,21.99s3.01,16.04,8,21.99c4.99-5.95,7.99-13.62,7.99-21.99
		S88.11,18.23,83.13,12.28z"/>
	<path class="st2" d="M72.31,35.06c-5.92-5.92-13.47-9.22-21.2-9.9c0.68,7.74,3.98,15.28,9.89,21.2c5.76,5.76,13.05,9.02,20.56,9.82
		c-4.52-5.54-7.21-12.36-7.71-19.48C73.36,36.15,72.85,35.59,72.31,35.06z"/>
	<path class="st2" d="M93.93,35.06c-0.54,0.54-1.05,1.09-1.54,1.65c-0.5,7.11-3.19,13.93-7.71,19.48c7.51-0.8,14.8-4.07,20.56-9.82
		c5.92-5.92,9.22-13.47,9.9-21.2C107.4,25.84,99.85,29.14,93.93,35.06z"/>
	<path class="st1" d="M133.39,56.26c0,0-49.81,0.27-49.81,18.27v43.55c2.76,3.29,4.42,7.53,4.42,12.17c0,4.63-1.66,8.88-4.42,12.17
		v0.88c1.47,0,2.66,1.19,2.66,2.66s-1.19,2.66-2.66,2.66v0.88c2.76,3.3,4.42,7.54,4.42,12.17s-1.66,8.88-4.42,12.16v12.88
		c22.57-0.47,44.25-15.59,48.32-43.43C134.96,122.42,133.39,56.26,133.39,56.26z M92.02,157.97c-1.91-1.92-2.99-4.34-3.25-6.84
		c2.5,0.26,4.92,1.34,6.83,3.25s2.99,4.34,3.25,6.84C96.36,160.97,93.93,159.89,92.02,157.97z M99.3,150.39
		c-4.63,0-8.88-1.66-12.17-4.43c3.29-2.76,7.54-4.42,12.17-4.42s8.88,1.66,12.17,4.42C108.17,148.72,103.93,150.39,99.3,150.39z
		 M88.77,140.78c0.25-2.49,1.34-4.92,3.25-6.83c1.92-1.91,4.34-2.99,6.84-3.25c-0.26,2.49-1.34,4.92-3.25,6.84
		C93.69,139.45,91.26,140.53,88.77,140.78z M122.05,105.56c-3.95,1.28-8.11-0.76-9.24-4.51c-0.9-3.02,0.65-6.14,3.46-6.94
		c2.2-0.63,4.4,0.53,4.85,2.55c0.25,1.11-0.33,2.27-1.29,2.59c-0.86,0.29-1.44-0.19-1.27-1.07c0.14-0.71-0.22-0.97-0.84-1.02
		c-0.77-0.06-1.46,0.54-1.7,1.43c-0.41,1.55,0.66,3.22,2.39,3.74c2.89,0.86,5.97-1.55,6.1-4.77c0.18-4.33-3.88-7.76-8.25-6.96
		c-3.73,0.7-6.27,3.32-7.06,7.23c-0.69,3.42-2.52,6.05-5.61,7.73c-5.13,2.77-11.42,0.71-13.59-4.44c-1.77-4.19,0.14-8.98,4.19-10.5
		c3.41-1.28,7.11,0.39,8.09,3.66c0.63,2.11-0.24,4.36-2.05,5.27c-1.36,0.68-2.98,0.4-3.76-0.68c-0.44-0.6-0.6-1.27-0.18-1.94
		c0.3-0.48,0.72-0.62,1.27-0.3c0.31,0.18,0.94,0.4,1.03,0.29c0.3-0.37,0.59-0.89,0.58-1.35c-0.01-0.9-0.92-1.7-1.94-1.89
		c-2.44-0.47-4.71,1.84-4.43,4.52c0.31,2.89,2.68,5.04,5.69,5.14c4.61,0.14,8.24-4.41,7.31-9.12c-0.43-2.18-1.57-3.91-3.21-5.39
		c-2.98-2.69-4.28-6.04-3.72-10.06c0.64-4.6,4.76-8.23,9.34-8.22c3.46,0,6.45,1.92,7.7,4.95c1.58,3.79-0.25,8.02-3.95,9.1
		c-2.64,0.78-5.38-0.54-6.16-2.95c-0.54-1.69,0.13-3.48,1.56-4.12c0.99-0.44,2.08-0.18,2.49,0.6c0.26,0.48,0.25,1-0.29,1.19
		c-0.52,0.18-0.97,0.31-0.87,0.96s0.56,0.98,1.18,1.12c0.96,0.22,2.01-0.25,2.63-1.19c0.9-1.38,0.66-3.35-0.57-4.67
		c-1.72-1.85-4.69-2.09-6.91-0.56c-3.69,2.54-3.77,8.2-0.14,11.22c2.67,2.23,5.67,2.5,8.9,1.44c5.55-1.82,11.27,0.64,13.44,5.76
		C129.35,98.35,126.93,103.98,122.05,105.56z"/>
	<path class="st2" d="M34.35,143.29c4.07,27.84,25.75,42.96,48.32,43.43v-12.88c-2.76-3.29-4.42-7.53-4.42-12.16
		s1.66-8.88,4.42-12.17v-0.88c-1.47,0-2.66-1.19-2.66-2.66s1.19-2.66,2.66-2.66v-0.88c-2.76-3.29-4.42-7.54-4.42-12.17
		c0-4.63,1.66-8.88,4.42-12.17V74.53c0-18-49.8-18.27-49.8-18.27S31.29,122.42,34.35,143.29z M67.39,161.23
		c0.26-2.5,1.34-4.92,3.25-6.84c1.91-1.91,4.34-3,6.83-3.25c-0.25,2.5-1.34,4.92-3.25,6.84C72.32,159.89,69.89,160.97,67.39,161.23z
		 M54.78,145.96c3.29-2.76,7.54-4.42,12.17-4.42s8.88,1.66,12.17,4.42c-3.29,2.76-7.53,4.43-12.17,4.43
		C62.32,150.39,58.07,148.72,54.78,145.96z M70.65,137.54c-1.92-1.92-2.99-4.35-3.25-6.84c2.5,0.26,4.93,1.34,6.84,3.25
		s2.99,4.34,3.25,6.83C74.98,140.53,72.56,139.45,70.65,137.54z M38.99,93.41c2.16-5.11,7.89-7.58,13.44-5.76
		c3.23,1.06,6.23,0.79,8.9-1.44c3.63-3.02,3.55-8.68-0.14-11.22c-2.22-1.53-5.2-1.29-6.91,0.56c-1.23,1.32-1.47,3.29-0.57,4.67
		c0.62,0.94,1.66,1.41,2.63,1.19c0.61-0.14,1.07-0.47,1.18-1.12c0.1-0.65-0.35-0.79-0.87-0.96c-0.55-0.19-0.55-0.7-0.29-1.19
		c0.41-0.78,1.51-1.04,2.49-0.6c1.43,0.64,2.11,2.43,1.56,4.12c-0.78,2.41-3.52,3.72-6.16,2.95c-3.7-1.09-5.53-5.31-3.95-9.1
		c1.26-3.03,4.24-4.94,7.7-4.95c4.58-0.01,8.7,3.62,9.34,8.22c0.57,4.02-0.73,7.37-3.71,10.06c-1.64,1.48-2.78,3.2-3.21,5.39
		c-0.93,4.71,2.7,9.27,7.31,9.12c3.01-0.09,5.38-2.24,5.69-5.14c0.28-2.68-1.99-4.99-4.43-4.52c-1.02,0.2-1.92,0.99-1.94,1.89
		c-0.01,0.46,0.27,0.98,0.58,1.35c0.1,0.11,0.72-0.1,1.03-0.29c0.56-0.32,0.97-0.18,1.27,0.3c0.42,0.67,0.25,1.34-0.18,1.94
		c-0.79,1.08-2.4,1.37-3.76,0.68c-1.81-0.91-2.68-3.16-2.05-5.27c0.98-3.27,4.68-4.94,8.09-3.66c4.05,1.52,5.96,6.31,4.19,10.5
		c-2.17,5.14-8.46,7.21-13.59,4.44c-3.09-1.68-4.92-4.31-5.61-7.73c-0.79-3.91-3.33-6.54-7.06-7.23c-4.37-0.81-8.43,2.62-8.25,6.96
		c0.13,3.22,3.22,5.63,6.1,4.77c1.73-0.52,2.8-2.19,2.39-3.74c-0.24-0.88-0.93-1.48-1.7-1.43c-0.62,0.04-0.97,0.31-0.84,1.02
		c0.17,0.88-0.41,1.36-1.27,1.07c-0.96-0.32-1.53-1.47-1.29-2.59c0.45-2.02,2.66-3.18,4.85-2.55c2.81,0.81,4.37,3.93,3.46,6.94
		c-1.13,3.75-5.29,5.78-9.24,4.51C39.32,103.98,36.9,98.35,38.99,93.41z"/>
</g>
<rect x="153.34" y="58.52" class="st3" width="173.56" height="31.53"/>
<g class="st4">
	<path class="st5" d="M154.12,86.29V58.52h13.42v4.21h-6.94v6.08h6.71v4.21h-6.71v13.26H154.12z"/>
	<path class="st5" d="M181.34,58.52l3.59,27.77h-6.44l-0.74-6.83h-3.51l-1.05,6.83h-5.46l4.72-27.77H181.34z M177.29,75.26
		l-1.13-12.36h-0.08l-1.13,12.36H177.29z"/>
	<path class="st5" d="M203.61,75.49v3.67c0,5.19-2.77,7.68-8.23,7.68c-4.29,0-8.15-1.75-8.15-8.11V66.09c0-6.36,3.86-8.11,8.15-8.11
		c4.72,0,8.23,1.4,8.23,7.41v3.04h-6.47v-3.82c0-1.13-0.35-2.18-1.75-2.18c-1.33,0-1.68,1.05-1.68,2.18v15.6
		c0,1.13,0.35,2.18,1.68,2.18c1.4,0,1.75-1.05,1.75-2.18l0.04-4.72H203.61z"/>
	<path class="st5" d="M222.68,78.38c-0.16,5.89-2.18,8.46-8.23,8.46c-8,0-8.15-5.58-8.15-9.09V58.52h6.47v20.01
		c0,2.22,0,3.86,1.68,3.86c1.76,0,1.76-1.64,1.76-3.86V58.52h6.47V78.38z"/>
	<path class="st5" d="M225.29,86.29V58.52h6.47v23.56h7.02v4.21H225.29z"/>
	<path class="st5" d="M240.78,58.52h6.67c7.25,0,9.71,1.17,9.71,9.48v9.91c0,5.27-1.56,8.39-9.71,8.39h-6.67V58.52z M247.25,82.31
		c3.16,0,3.43-1.21,3.43-3.86V67.03c0-3.71-0.16-4.52-3.43-4.52V82.31z"/>
	<path class="st5" d="M273.03,58.52l3.59,27.77h-6.44l-0.74-6.83h-3.51l-1.05,6.83h-5.46l4.72-27.77H273.03z M268.97,75.26
		l-1.13-12.36h-0.08l-1.13,12.36H268.97z"/>
	<path class="st5" d="M278.92,58.52h6.67c7.25,0,9.71,1.17,9.71,9.48v9.91c0,5.27-1.56,8.39-9.71,8.39h-6.67V58.52z M285.39,82.31
		c3.16,0,3.43-1.21,3.43-3.86V67.03c0-3.71-0.16-4.52-3.43-4.52V82.31z"/>
	<path class="st5" d="M297.91,86.29V58.52h13.42v4.21h-6.94v6.08h6.71v4.21h-6.71v9.05h6.94v4.21H297.91z"/>
</g>
</svg>
